<svg xmlns="http://www.w3.org/2000/svg" width="111.869" height="35.47" viewBox="0 0 111.869 35.47">
  <g id="Group_21136" data-name="Group 21136" transform="translate(-3.725 -1.609)">
    <g id="Group_21139" data-name="Group 21139" transform="translate(3.725 1.609)">
      <ellipse id="Ellipse_113" data-name="Ellipse 113" cx="13.235" cy="13.735" rx="13.235" ry="13.735" transform="translate(5 3.88)" fill="#fff"/>
      <g id="Group_21122" data-name="Group 21122">
        <path id="Path_55817" data-name="Path 55817" d="M19.735,2A17.735,17.735,0,1,0,37.47,19.735,17.735,17.735,0,0,0,19.735,2Zm8.217,11.19-6.59,6.59,5.831,6.5a1.182,1.182,0,1,1-1.672,1.672l-5.831-6.5-6.5,6.5a1.182,1.182,0,1,1-1.672-1.672l6.59-6.59-5.831-6.5a1.182,1.182,0,1,1,1.672-1.672l5.831,6.5,6.5-6.5a1.182,1.182,0,1,1,1.672,1.672Z" transform="translate(-2 -2)" fill="#ff4646"/>
      </g>
    </g>
    <path id="Path_55827" data-name="Path 55827" d="M1.828,0H11.4V-2.226H4.466V-6.458h6.552V-8.566H4.466v-4H11.4V-14.8H1.828ZM13.951,0h2.638V-5.573h2.939L22.433,0h3.018l-3.23-5.973a3.99,3.99,0,0,0,2.051-1.609,4.667,4.667,0,0,0,.734-2.6V-10.2a4.707,4.707,0,0,0-.609-2.442,4.074,4.074,0,0,0-1.746-1.591,6.094,6.094,0,0,0-2.728-.563H13.951Zm2.638-7.6v-5.056h3.006a2.783,2.783,0,0,1,1.984.677,2.4,2.4,0,0,1,.721,1.841v.021a2.439,2.439,0,0,1-.7,1.855,2.718,2.718,0,0,1-1.953.663ZM27.423,0H30.06V-5.573H33L35.9,0h3.018l-3.23-5.973a3.99,3.99,0,0,0,2.051-1.609,4.667,4.667,0,0,0,.734-2.6V-10.2a4.707,4.707,0,0,0-.609-2.442,4.074,4.074,0,0,0-1.746-1.591,6.094,6.094,0,0,0-2.728-.563H27.423ZM30.06-7.6v-5.056h3.006a2.783,2.783,0,0,1,1.984.677,2.4,2.4,0,0,1,.721,1.841v.021a2.439,2.439,0,0,1-.7,1.855,2.718,2.718,0,0,1-1.953.663ZM47.267.368A7.067,7.067,0,0,0,51-.582a6.273,6.273,0,0,0,2.417-2.692,9.319,9.319,0,0,0,.848-4.119v-.021a9.3,9.3,0,0,0-.851-4.123,6.25,6.25,0,0,0-2.421-2.685,7.094,7.094,0,0,0-3.724-.943,7.082,7.082,0,0,0-3.715.943,6.283,6.283,0,0,0-2.428,2.681,9.243,9.243,0,0,0-.856,4.126v.021a9.342,9.342,0,0,0,.848,4.123A6.25,6.25,0,0,0,43.531-.579,7.091,7.091,0,0,0,47.267.368Zm0-2.287a3.9,3.9,0,0,1-2.3-.677A4.315,4.315,0,0,1,43.481-4.5a7.374,7.374,0,0,1-.521-2.888v-.021a7.247,7.247,0,0,1,.532-2.9,4.34,4.34,0,0,1,1.5-1.9,3.9,3.9,0,0,1,2.278-.67,3.908,3.908,0,0,1,2.285.67,4.306,4.306,0,0,1,1.492,1.9,7.31,7.31,0,0,1,.526,2.9v.021A7.308,7.308,0,0,1,51.045-4.5,4.35,4.35,0,0,1,49.552-2.6,3.879,3.879,0,0,1,47.267-1.918ZM56.645,0h2.638V-5.573h2.939L65.127,0h3.018l-3.23-5.973a3.99,3.99,0,0,0,2.051-1.609,4.667,4.667,0,0,0,.734-2.6V-10.2a4.707,4.707,0,0,0-.609-2.442,4.074,4.074,0,0,0-1.746-1.591,6.094,6.094,0,0,0-2.728-.563H56.645Zm2.638-7.6v-5.056h3.006a2.783,2.783,0,0,1,1.984.677,2.4,2.4,0,0,1,.721,1.841v.021a2.439,2.439,0,0,1-.7,1.855,2.718,2.718,0,0,1-1.953.663Z" transform="translate(47.449 27.386)" fill="#ff4646"/>
  </g>
</svg>
