<svg id="Group_21132" data-name="Group 21132" xmlns="http://www.w3.org/2000/svg" width="25" height="25" viewBox="0 0 25 25">
  <ellipse id="Ellipse_113" data-name="Ellipse 113" cx="8" cy="8.5" rx="8" ry="8.5" transform="translate(5 3.88)" fill="#fff"/>
  <g id="Group_21122" data-name="Group 21122">
    <path id="Path_55817" data-name="Path 55817" d="M14.5,2A12.5,12.5,0,1,0,27,14.5,12.5,12.5,0,0,0,14.5,2Zm5.792,7.887-4.645,4.645,4.11,4.582a.833.833,0,1,1-1.178,1.178l-4.11-4.582L9.887,20.292a.833.833,0,1,1-1.178-1.178l4.645-4.645L9.243,9.887a.833.833,0,1,1,1.178-1.178l4.11,4.582,4.582-4.582a.833.833,0,1,1,1.178,1.178Z" transform="translate(-2 -2)" fill="#c73f3f"/>
  </g>
</svg>
