<svg xmlns="http://www.w3.org/2000/svg" width="122.186" height="39.806" viewBox="0 0 122.186 39.806">
  <g id="Group_6685" data-name="Group 6685" transform="translate(-56.272 -51.582)">
    <g id="Group_5495" data-name="Group 5495" transform="translate(104.698 61.691)">
      <g id="Group_5491" data-name="Group 5491">
        <path id="Path_1" data-name="Path 1" d="M28.409,84.568s0-2.837,0-4.015c0-.181-.041-.237-.229-.233-.557.013-1.116.015-1.674,0-.232-.007-.3.048-.3.293,0,2.139.006,5.872.006,5.872Z" transform="translate(-12.367 -80.319)" fill="#fff"/>
        <path id="Path_2" data-name="Path 2" d="M26.214,98.647v1.073h-.006v3.251h2.206V96.688Z" transform="translate(-12.367 -88.043)" fill="#fff"/>
        <path id="Path_3" data-name="Path 3" d="M50.862,95.839c0-2.276,0-5.261,0-7.15,0-.2-.062-.245-.344-.213a6.273,6.273,0,0,1-1.339.012c-.416-.046-.524-.045-.522.236.01,1.683,0,3.363,0,5.047,0,.691,0,1.378,0,2.069h-.006V99.09h2.207V95.839Z" transform="translate(-22.96 -84.163)" fill="#fff"/>
        <path id="Path_4" data-name="Path 4" d="M100.132,93.643A5.576,5.576,0,1,0,97.9,98.09v.882a.138.138,0,0,0,.136.138h1.932a.137.137,0,0,0,.136-.138s.025-5.168.025-5.329m-5.565,3.414a3.414,3.414,0,1,1,3.415-3.414,3.415,3.415,0,0,1-3.415,3.414" transform="translate(-41.999 -83.981)" fill="#fff"/>
        <path id="Path_5" data-name="Path 5" d="M23.588,95.247l0-3.251c0-1.258-.005-2.617-.011-3.548a4.041,4.041,0,0,0-.515-1.922,3.873,3.873,0,0,0-3.172-2.054c-.092-.009-.182-.015-.272-.022a6.188,6.188,0,0,0-1.914.119,3.982,3.982,0,0,0-1.866,1.068q-2.565,2.255-5.144,4.5C9.279,91.363,7.61,93.4,5.564,93.4a3.413,3.413,0,1,1,3.3-4.265c.022.536.063,1.7.063,1.7l2.2-2.03s0-5.815,0-8.259a.215.215,0,0,0-.22-.217c-.43.007-1.321,0-1.746,0a.233.233,0,0,0-.236.232c0,.66.005,4,.007,5a5.53,5.53,0,0,0-3.67-1.132,5.563,5.563,0,0,0,.3,11.119c2.794,0,4.447-2.077,6.361-3.786l3.631-3.244c.4-.36.805-.721,1.21-1.078a2.979,2.979,0,0,1,2.319-1.027,2.292,2.292,0,0,1,2.021,1.276,3.69,3.69,0,0,1,.27,1.487q0,2.906,0,5.809a.732.732,0,0,0,.009.123v.142Z" transform="translate(0 -80.32)" fill="#fff"/>
        <path id="Path_6" data-name="Path 6" d="M70.668,94.411a2.436,2.436,0,0,1-2.636,2.475A2.535,2.535,0,0,1,65.876,94.3V89a.527.527,0,0,0-.516-.537H64.117A.527.527,0,0,0,63.6,89v5.3a2.534,2.534,0,0,1-2.156,2.584,2.435,2.435,0,0,1-2.634-2.475V89a.528.528,0,0,0-.518-.537H57.05a.528.528,0,0,0-.518.537v5.233a4.893,4.893,0,0,0,4.534,5.025,4.579,4.579,0,0,0,3.67-1.686,4.593,4.593,0,0,0,3.535,1.688,4.533,4.533,0,0,0,2.883-1.042,4.909,4.909,0,0,0,1.788-3.809V89a.527.527,0,0,0-.518-.537H71.184a.526.526,0,0,0-.517.537Z" transform="translate(-26.676 -84.162)" fill="#fff"/>
        <path id="Path_7" data-name="Path 7" d="M121.487,95.838c0-2.276,0-5.261,0-7.15,0-.2-.061-.245-.344-.213a6.257,6.257,0,0,1-1.338.012c-.414-.046-.524-.045-.522.236.008,1.683,0,3.363,0,5.047,0,.691,0,1.378,0,2.069h-.006v-.2a2.639,2.639,0,0,1-5.156-.814V89.039a.575.575,0,0,0-.575-.575h-1.377a.575.575,0,0,0-.575.575v5.593A5.31,5.31,0,0,0,116.632,100a5.147,5.147,0,0,0,2.651-.646v4.4h2.205V95.838Z" transform="translate(-52.661 -84.162)" fill="#fff"/>
      </g>
      <g id="Group_5492" data-name="Group 5492" transform="translate(69.831 4.302)">
        <path id="Path_12" data-name="Path 12" d="M132.9,88.673h-.671v-.208h1.571v.208h-.671v1.79H132.9Z" transform="translate(-132.224 -88.465)" fill="#fff"/>
        <path id="Path_13" data-name="Path 13" d="M136.044,88.465h.228L137,89.556l.728-1.091h.228v2h-.225V88.845L137,89.915h-.011l-.728-1.068v1.616h-.22Z" transform="translate(-134.027 -88.465)" fill="#fff"/>
      </g>
    </g>
    <g id="Group_5560" data-name="Group 5560" transform="translate(56.272 51.582)">
      <path id="Path_8" data-name="Path 8" d="M67.585,44.42l-7.645-7.609L58.02,38.694l7.633,7.546a4.26,4.26,0,1,1-5.69-.472.469.469,0,0,1-.016-.049l1.925-1.893-1.864-1.865-2.1,2.069.013.009a6.914,6.914,0,1,0,9.656.389Z" transform="translate(-42.653 -16.259)" fill="#0098d9"/>
      <path id="Path_9" data-name="Path 9" d="M81.765,23.209a6.854,6.854,0,0,0-5.115,2.283l-.011-.011-7.392,7.288,1.864,1.865,7.221-7.116a.3.3,0,0,1,.048.015,4.276,4.276,0,1,1,.473,5.689l-2.483-2.5-1.883,1.922,2.546,2.508.006-.006a6.908,6.908,0,1,0,4.727-11.94" transform="translate(-48.663 -10.251)" fill="#0098d9"/>
      <path id="Path_10" data-name="Path 10" d="M49.887,25.784l-7.162,7.059-.048-.013a4.277,4.277,0,1,1-.473-5.69l2.483,2.5,1.882-1.922-2.545-2.508-.006.006a6.912,6.912,0,1,0,.389,9.656l.011.01,7.309-7.2Z" transform="translate(-32.378 -10.303)" fill="#fff"/>
      <path id="Path_11" data-name="Path 11" d="M69.852,6.914a6.914,6.914,0,1,0-11.942,4.727l-.005,0,3.086,3.186,0,0,2.335,2.4,0,0,2.108,2.181,1.923-1.882-2.618-2.688,0,0L62.9,12.954l-.007.005L59.838,9.827a4.262,4.262,0,1,1,5.69.471c.006.017.009.033.014.05l-1.988,1.959,1.838,1.889,2.186-2.154-.012-.012a6.848,6.848,0,0,0,2.286-5.114" transform="translate(-42.822)" fill="#0098d9"/>
    </g>
  </g>
</svg>
