<svg xmlns="http://www.w3.org/2000/svg" width="448.32" height="80.72" viewBox="0 0 448.32 80.72">
  <path id="Path_55805" data-name="Path 55805" d="M38-44.72a7.952,7.952,0,0,0,1.6,4.6A8.215,8.215,0,0,0,44-36.96a28.252,28.252,0,0,0,.88-6.68,10.332,10.332,0,0,0-.84-4.68q-.84-1.6-1.8-1.6a3.729,3.729,0,0,0-3.12,1.44A5.951,5.951,0,0,0,38-44.72Zm12.96.4A32.726,32.726,0,0,1,50-36.88a28.234,28.234,0,0,0,10.32-5.04,2.528,2.528,0,0,1,1.4-.48,1.553,1.553,0,0,1,1.2.6,2.238,2.238,0,0,1,.52,1.52,2.259,2.259,0,0,1-.96,1.72q-7.52,5.84-13.92,6.72A89.588,89.588,0,0,1,43.6-20.72,108.718,108.718,0,0,1,32.8-4.64q-6.16,7.28-12.96,7.6h-.16Q9.44,2.96,9.44-12.72a55.091,55.091,0,0,1,5.28-22.96L2.96-28.32a2.4,2.4,0,0,1-1.28.4,1.574,1.574,0,0,1-1.76-1.8,2.832,2.832,0,0,1,1.28-2.6L19.52-43.44a3.761,3.761,0,0,1,2.32-.96,2.83,2.83,0,0,1,1.96.76q.84.76.84,1.28a1.472,1.472,0,0,1-.44,1,31.758,31.758,0,0,0-2.28,4.04,67.746,67.746,0,0,0-4.04,10.88,49.735,49.735,0,0,0-2.2,14.36q0,9.76,4.32,9.76t9.92-7.12A79.791,79.791,0,0,0,42.48-32.08a11.65,11.65,0,0,1-7.04-4.88,14.088,14.088,0,0,1-2.56-8.08,10.5,10.5,0,0,1,2.72-7.32q2.72-3,7.84-3a6.34,6.34,0,0,1,5.48,2.96Q50.96-49.44,50.96-44.32Zm-3.68,34a17.757,17.757,0,0,1,3.88-11q3.88-5.08,9.4-5.08A8.1,8.1,0,0,1,66-24.56a6.181,6.181,0,0,1,2.16,4.96,8.511,8.511,0,0,1-3.6,7.12q-3.6,2.72-10.88,4.24Q54.8-4.8,59.44-4.8q6.4,0,12.08-5.44a1.365,1.365,0,0,1,1-.32A1.854,1.854,0,0,1,73.8-10a1.791,1.791,0,0,1,.6,1.36,2.777,2.777,0,0,1-.56,1.6,18.479,18.479,0,0,1-6.32,5.16,18.525,18.525,0,0,1-9,2.36,11.951,11.951,0,0,1-7.96-2.76Q47.28-5.04,47.28-10.32ZM60.64-21.2q-2.56,0-4.96,3a10.121,10.121,0,0,0-2.4,6.44q10-3.44,10-7.2Q63.28-21.2,60.64-21.2ZM76.8-10.08a41.506,41.506,0,0,1,5.4-10.4q3.96-5.84,6.44-5.84,3.52,0,3.52,2.72a11.891,11.891,0,0,1-.84,4.04,13.2,13.2,0,0,0-.84,2.76q0,1.2,1.72,1.2t5.64-2.32a1.664,1.664,0,0,1,.64-.08q.48,0,1.24.88a2.55,2.55,0,0,1,.76,1.56,1.365,1.365,0,0,1-.32,1q-4.8,4.32-9.36,4.32-5.44,0-5.44-4.64,0-.16,1.28-5.2a15.4,15.4,0,0,0-1.28,1.92A94.555,94.555,0,0,0,78-2.08,3.563,3.563,0,0,1,74.56,0q-3.28,0-3.28-5.28v-.64A58.257,58.257,0,0,1,73.76-22.8q1.2-3.6,3.84-3.6a2.272,2.272,0,0,1,1.68.64,2.171,2.171,0,0,1,.64,1.6Zm20.24,2.4a32.535,32.535,0,0,1,1.28-8.28,33.473,33.473,0,0,1,2.56-7.08,6.718,6.718,0,0,1,2.2-2.76,4.762,4.762,0,0,1,2.08-.44,3.521,3.521,0,0,1,2,.56,1.527,1.527,0,0,1,.84,1.2,5.7,5.7,0,0,1-.92,2.24A35.917,35.917,0,0,0,104.72-16a26.613,26.613,0,0,0-1.44,7.44q0,3.76,2.8,3.76,3.36,0,8.08-5.44a1.934,1.934,0,0,1,1.56-.8,2.463,2.463,0,0,1,1.68.68,2.084,2.084,0,0,1,.76,1.6,3.431,3.431,0,0,1-.88,2.04Q111.36.24,104.96.24a7.706,7.706,0,0,1-5.76-2.2A7.816,7.816,0,0,1,97.04-7.68ZM108.8-31.52q-4.32,0-4.32-3.76a3.886,3.886,0,0,1,1.4-3.16,5.393,5.393,0,0,1,3.56-1.16q4,0,4,3.6a4.278,4.278,0,0,1-1.28,3.28A4.714,4.714,0,0,1,108.8-31.52ZM128.16,2.72q0,2.72-.04,3.72t-.24,3.32a14.119,14.119,0,0,1-1.56,5.04q-2,4-8.08,4.48h-.4q-6.08,0-6.08-14.4a132.748,132.748,0,0,1,2.88-26.16,101.3,101.3,0,0,1,3.8-14.32,34.674,34.674,0,0,1,5.88-10.8q3.6-4.32,7.92-4.32a4.933,4.933,0,0,1,4,1.72,7.6,7.6,0,0,1,1.44,5,21.7,21.7,0,0,1-1.44,7.28q-2.8,8-13.2,20.24a8.864,8.864,0,0,0,2.8.4,23.182,23.182,0,0,0,3.28-.24,8.463,8.463,0,0,0,1.32-.32q.76-.24,1.12-.36a12.377,12.377,0,0,0,1.2-.52,10.909,10.909,0,0,0,1.08-.56q.24-.16,1.24-.72t1.32-.76a1.1,1.1,0,0,1,.56-.2q.96,0,.96,1.92a4.5,4.5,0,0,1-1.2,3.2q-2.4,2.64-11.84,2.96a35.43,35.43,0,0,1,2.28,7.2A34.809,34.809,0,0,1,128.16,2.72Zm-9.04,11.44q4,0,4-9.12a45.423,45.423,0,0,0-1.36-10.72,31.4,31.4,0,0,0-3.2-8.64q0,.4-.44,8.08t-.44,10.96Q117.68,14.16,119.12,14.16Zm12.08-58.8q-1.76,0-3.48,2.36a23.659,23.659,0,0,0-3.04,6.16q-1.32,3.8-2.28,7.12t-1.72,6.72q-.76,3.4-.84,3.56,2-2.32,4.36-5.4a67.818,67.818,0,0,0,5.36-8.6q3-5.52,3-8.72T131.2-44.64Zm4.24,70q-6.64,0-6.64-5.44a5.878,5.878,0,0,1,.48-2.48q.24-.64.44-1.16a5.746,5.746,0,0,1,.64-1.16q.44-.64.68-1t.8-1.08q.56-.72.76-.96t.84-.92a6.236,6.236,0,0,0,.72-.84,42.416,42.416,0,0,1,8.24-6.8q2.96-1.92,4-2.72l2.4-6.96a11.676,11.676,0,0,1-4,4.4A9.409,9.409,0,0,1,139.56,0,5.947,5.947,0,0,1,135-2.2a7.935,7.935,0,0,1-1.96-5.48,31.851,31.851,0,0,1,3.84-15.04,5.117,5.117,0,0,1,1.68-1.8,3.773,3.773,0,0,1,2.08-.76,2.794,2.794,0,0,1,1.68.52,1.842,1.842,0,0,1,.72,1.6,6.424,6.424,0,0,1-.96,2.84,12.334,12.334,0,0,0-.64,1.44,39.472,39.472,0,0,0-2,10.36q0,3.64,2.8,3.64,4.24,0,6.64-8.08l2.32-8.32q.96-3.6,3.68-3.6,2.4,0,2.4,1.52a46.191,46.191,0,0,1-1.48,8.44q-1.48,6.28-2.44,12.12a107.337,107.337,0,0,1,13.2-8.48,2.474,2.474,0,0,1,1.12-.24,1.986,1.986,0,0,1,1.36.76,2.844,2.844,0,0,1,.72,2.04,2.875,2.875,0,0,1-1.68,2.32q-13.28,7.84-15.6,9.36a57.417,57.417,0,0,1-3.36,11.92,21.472,21.472,0,0,1-3.04,5.44,14.279,14.279,0,0,1-4.44,3.56A12.909,12.909,0,0,1,135.44,25.36Zm.96-4.64a5.125,5.125,0,0,0,3.44-1.52q3.36-3.28,5.6-12.72a29.306,29.306,0,0,0-7.16,6.36q-3.64,4.28-3.64,6.08A1.574,1.574,0,0,0,136.4,20.72Zm42.88-37.2a41.915,41.915,0,0,1,2.68-15.04A36.917,36.917,0,0,1,189-43.36a33.049,33.049,0,0,1,10-7.56,26.105,26.105,0,0,1,11.6-2.76q5.96,0,9.52,3.16t3.56,9.04a14.165,14.165,0,0,1-4.52,10.36,21.911,21.911,0,0,1-11.64,5.84q-1.28.16-1.68.16-2.96,0-2.96-2.32a2.09,2.09,0,0,1,.84-1.6,11.146,11.146,0,0,1,3.8-1.52,16.579,16.579,0,0,0,7.32-4,8.566,8.566,0,0,0,2.76-6.28q0-3.56-2.04-5.16a8.923,8.923,0,0,0-5.64-1.6q-8.72,0-15.88,9a32.975,32.975,0,0,0-7.16,21.16q0,9.12,3.68,14.04T201.2,1.52a22.743,22.743,0,0,0,12.6-3.64,30.733,30.733,0,0,0,9.32-9.4,1.3,1.3,0,0,1,1.24-.56,3.146,3.146,0,0,1,1.88.72q.96.72.96,1.28a2,2,0,0,1-.16.88A27.676,27.676,0,0,1,215.92,3a30.9,30.9,0,0,1-16.28,4.6,19.315,19.315,0,0,1-14.52-6.08Q179.28-4.56,179.28-16.48Zm51.04,6.4a41.506,41.506,0,0,1,5.4-10.4q3.96-5.84,6.44-5.84,3.52,0,3.52,2.72a11.891,11.891,0,0,1-.84,4.04A13.2,13.2,0,0,0,244-16.8q0,1.2,1.72,1.2t5.64-2.32A1.664,1.664,0,0,1,252-18q.48,0,1.24.88a2.55,2.55,0,0,1,.76,1.56,1.365,1.365,0,0,1-.32,1q-4.8,4.32-9.36,4.32-5.44,0-5.44-4.64,0-.16,1.28-5.2a15.4,15.4,0,0,0-1.28,1.92,94.555,94.555,0,0,0-7.36,16.08A3.563,3.563,0,0,1,228.08,0q-3.28,0-3.28-5.28v-.64a58.257,58.257,0,0,1,2.48-16.88q1.2-3.6,3.84-3.6a2.272,2.272,0,0,1,1.68.64,2.171,2.171,0,0,1,.64,1.6Zm18.88-.24a17.757,17.757,0,0,1,3.88-11q3.88-5.08,9.4-5.08a8.1,8.1,0,0,1,5.44,1.84,6.181,6.181,0,0,1,2.16,4.96,8.511,8.511,0,0,1-3.6,7.12q-3.6,2.72-10.88,4.24,1.12,3.44,5.76,3.44,6.4,0,12.08-5.44a1.365,1.365,0,0,1,1-.32,1.854,1.854,0,0,1,1.28.56,1.791,1.791,0,0,1,.6,1.36,2.777,2.777,0,0,1-.56,1.6,18.479,18.479,0,0,1-6.32,5.16,18.525,18.525,0,0,1-9,2.36,11.951,11.951,0,0,1-7.96-2.76Q249.2-5.04,249.2-10.32ZM262.56-21.2q-2.56,0-4.96,3a10.121,10.121,0,0,0-2.4,6.44q10-3.44,10-7.2Q265.2-21.2,262.56-21.2Zm9.68,12.08a19.138,19.138,0,0,1,4.16-11.96q4.16-5.4,9.52-5.4a8.831,8.831,0,0,1,2.8.48q3.68-26.56,14.88-26.56a5.562,5.562,0,0,1,4.04,1.6,5.706,5.706,0,0,1,1.8,3.76,12.924,12.924,0,0,1,.08,1.68,30.04,30.04,0,0,1-4.08,14.48q-2.24,4.16-3.56,6.32t-4.6,6.88q-3.28,4.72-3.76,5.44v.72q0,6.88,3.68,6.88,4.16,0,8.64-5.84a1.753,1.753,0,0,1,1.28-.4,2.489,2.489,0,0,1,1.68.72,2.2,2.2,0,0,1,.8,1.68,3.084,3.084,0,0,1-.64,1.84Q303.44.24,296.56.24q-5.36,0-7.84-5.52A8.4,8.4,0,0,1,280.32.4a7.361,7.361,0,0,1-5.76-2.64A10.041,10.041,0,0,1,272.24-9.12ZM281.6-5.2a4.211,4.211,0,0,0,3.64-2.12q1.4-2.12,2.2-7.72l.96-6.08a8.64,8.64,0,0,0-7.04,3.52,12.287,12.287,0,0,0-2.8,7.84v.88Q278.8-5.2,281.6-5.2Zm20.8-40.72q-2.64,0-4.24,4.32a55.427,55.427,0,0,0-1.8,5.32q-.92,3.16-2.68,16.12a10.466,10.466,0,0,0,.64-1.12q.16-.16,1.92-2.92t3.12-5.16a52.273,52.273,0,0,0,2.96-6.48,19.9,19.9,0,0,0,1.6-7.08Q303.92-45.92,302.4-45.92Zm.64,35.6a17.757,17.757,0,0,1,3.88-11q3.88-5.08,9.4-5.08a8.1,8.1,0,0,1,5.44,1.84,6.181,6.181,0,0,1,2.16,4.96,8.511,8.511,0,0,1-3.6,7.12q-3.6,2.72-10.88,4.24,1.12,3.44,5.76,3.44,6.4,0,12.08-5.44a1.365,1.365,0,0,1,1-.32,1.854,1.854,0,0,1,1.28.56,1.791,1.791,0,0,1,.6,1.36,2.777,2.777,0,0,1-.56,1.6,18.479,18.479,0,0,1-6.32,5.16,18.525,18.525,0,0,1-9,2.36,11.951,11.951,0,0,1-7.96-2.76Q303.04-5.04,303.04-10.32ZM316.4-21.2q-2.56,0-4.96,3a10.121,10.121,0,0,0-2.4,6.44q10-3.44,10-7.2Q319.04-21.2,316.4-21.2ZM349.04-5.36q3.04-.64,7.36-4.72a1.245,1.245,0,0,1,.92-.32q.6,0,1.28,1.08a3.572,3.572,0,0,1,.68,1.68,2.11,2.11,0,0,1-.16.92,16.955,16.955,0,0,1-6.4,5.04,16.135,16.135,0,0,1-6.4,1.76q-4.64,0-4.64-5.04a27.094,27.094,0,0,1,1.6-7.6q1.6-4.96,1.6-5.32t-.16-.36h-.08q-1.36.56-5.72,6.36t-5.32,8.2A10.319,10.319,0,0,1,331.96-.6a3.019,3.019,0,0,1-2.2.68Q326.8,0,326.8-6a53.071,53.071,0,0,1,3.52-17.52q1.04-2.88,3.52-2.88a2.171,2.171,0,0,1,1.6.64,1.876,1.876,0,0,1,.64,1.32,3.437,3.437,0,0,1-.08.92,73.8,73.8,0,0,0-2.96,11.84,49.155,49.155,0,0,1,8.16-11q4-3.8,7.12-3.8a4.241,4.241,0,0,1,2.8,1,2.8,2.8,0,0,1,1.2,2.12q0,1.76-2.04,7.96a75.607,75.607,0,0,0-2.2,7.32,14.087,14.087,0,0,0-.16,1.96q0,.84.52.8T349.04-5.36Zm8.48-7.6v-.88a3.34,3.34,0,0,1-1.8.72,1.56,1.56,0,0,1-1.28-.68,2.684,2.684,0,0,1-.52-1.68,1.646,1.646,0,0,1,.96-1.52q.96-.52,3.04-1.48a72.6,72.6,0,0,1,5.6-20.24,25.837,25.837,0,0,1,5.36-8.04q3.2-3.16,6.24-3.16t4.36,1.52a5.42,5.42,0,0,1,1.32,3.68v.56a24.42,24.42,0,0,1-4.44,11.76,48.069,48.069,0,0,1-9.32,10.24q6.64-2.24,8.48-2.24a1.686,1.686,0,0,1,1.24.68,2.621,2.621,0,0,1,.6,1.8q0,1.12-1.36,1.36-4.08.64-12.48,4.08-.16,2.56-.16,4,0,7.6,3.28,7.6,3.84,0,8.88-5.6a1.9,1.9,0,0,1,1.4-.56,2.375,2.375,0,0,1,1.6.68,2.165,2.165,0,0,1,.76,1.68,3.064,3.064,0,0,1-.96,2.04Q372.16.24,365.92.24q-4.64,0-6.52-3.48T357.52-12.96Zm17.12-30.32q-2.24,0-4.48,3.36-4.16,6.16-5.68,15.68.16-.16,1.96-2.16t2.24-2.48q.44-.48,1.92-2.28a16.853,16.853,0,0,0,1.96-2.76q.48-.96,1.32-2.56A11.19,11.19,0,0,0,375-39.52a13.583,13.583,0,0,0,.28-2.56Q375.28-43.2,374.64-43.28Zm2.88,35.6a32.535,32.535,0,0,1,1.28-8.28,33.473,33.473,0,0,1,2.56-7.08,6.718,6.718,0,0,1,2.2-2.76,4.762,4.762,0,0,1,2.08-.44,3.521,3.521,0,0,1,2,.56,1.527,1.527,0,0,1,.84,1.2,5.7,5.7,0,0,1-.92,2.24A35.915,35.915,0,0,0,385.2-16a26.614,26.614,0,0,0-1.44,7.44q0,3.76,2.8,3.76,3.36,0,8.08-5.44a1.934,1.934,0,0,1,1.56-.8,2.464,2.464,0,0,1,1.68.68,2.084,2.084,0,0,1,.76,1.6,3.432,3.432,0,0,1-.88,2.04Q391.84.24,385.44.24a7.706,7.706,0,0,1-5.76-2.2A7.816,7.816,0,0,1,377.52-7.68Zm11.76-23.84q-4.32,0-4.32-3.76a3.886,3.886,0,0,1,1.4-3.16,5.393,5.393,0,0,1,3.56-1.16q4,0,4,3.6a4.278,4.278,0,0,1-1.28,3.28A4.714,4.714,0,0,1,389.28-31.52Zm3.2,23.2a18.5,18.5,0,0,1,5.16-12.84q5.16-5.64,11-5.64,3.28,0,3.28,1.68v.48h1.84q2.24,0,2.24,2.08v.48L413.76-8.32a3.8,3.8,0,0,0-.08.88q0,1.92,1.36,1.92,3.04,0,7.2-5.36a1.511,1.511,0,0,1,1.12-.72q.8,0,1.36,1.24a5.4,5.4,0,0,1,.56,2.16,4.674,4.674,0,0,1-.16,1.4,20.6,20.6,0,0,1-4.8,4.68A9.8,9.8,0,0,1,414.68,0a5.816,5.816,0,0,1-4.16-1.4,6.159,6.159,0,0,1-1.8-3.8v.16a10.489,10.489,0,0,1-3.6,4A10.257,10.257,0,0,1,399.6.4a6.3,6.3,0,0,1-5.16-2.44A9.715,9.715,0,0,1,392.48-8.32Zm9.04,3.12q2.16,0,4.12-2.4a13.415,13.415,0,0,0,2.68-5.28l2.16-8.96q-4.64,0-8.32,4.4t-3.68,8.32Q398.48-5.2,401.52-5.2ZM431.2.24A6.969,6.969,0,0,1,425.04-3q-2.16-3.24-2.16-8.84,0-1.68.08-2.56a85.478,85.478,0,0,1,6.08-24.16,32.944,32.944,0,0,1,6.16-9.96q3.68-3.96,7.76-3.96a4.975,4.975,0,0,1,3.84,1.56,5.5,5.5,0,0,1,1.44,3.88v.64q-.8,8.08-6.56,16.88a58.455,58.455,0,0,1-12.72,14.24,34.131,34.131,0,0,0-.32,3.92q0,6.48,3.84,6.48,4,0,8.88-5.6a1.9,1.9,0,0,1,1.4-.56,2.375,2.375,0,0,1,1.6.68,2.165,2.165,0,0,1,.76,1.68,3.064,3.064,0,0,1-.96,2.04Q438.08.24,431.2.24Zm9.76-46.16q-3.36,0-6.76,8.56a75.993,75.993,0,0,0-4.6,16.24,75.269,75.269,0,0,0,8.68-12q3.96-6.72,4.04-11.2Q442.32-45.92,440.96-45.92Z" transform="translate(0.08 55.36)" fill="#fff"/>
</svg>
