<svg xmlns="http://www.w3.org/2000/svg" width="132.259" height="35.469" viewBox="0 0 132.259 35.469">
  <g id="Group_21136" data-name="Group 21136" transform="translate(-4 -2.065)">
    <path id="Path_55826" data-name="Path 55826" d="M5.848,0H8.933l5.124-14.8H11.141L7.479-3.055H7.3L3.639-14.8H.724ZM15.905,0h9.57V-2.226H18.543V-6.458H25.1V-8.566H18.543v-4h6.932V-14.8h-9.57ZM28.028,0h2.638V-5.573H33.6L36.51,0h3.018L36.3-5.973a3.99,3.99,0,0,0,2.051-1.609,4.667,4.667,0,0,0,.734-2.6V-10.2a4.707,4.707,0,0,0-.609-2.442,4.074,4.074,0,0,0-1.746-1.591A6.094,6.094,0,0,0,34-14.8H28.028Zm2.638-7.6v-5.056h3.006a2.783,2.783,0,0,1,1.984.677,2.4,2.4,0,0,1,.721,1.841v.021a2.439,2.439,0,0,1-.7,1.855,2.718,2.718,0,0,1-1.953.663ZM41.5,0h2.638V-14.8H41.5Zm5.537,0h2.638V-6.039h6.211V-8.192H49.674V-12.57h6.793V-14.8H47.036ZM58.648,0h2.638V-14.8H58.648Zm5.537,0h9.57V-2.226H66.822V-6.458h6.552V-8.566H66.822v-4h6.932V-14.8h-9.57ZM76.307,0h5.547A7.56,7.56,0,0,0,85.62-.875a5.749,5.749,0,0,0,2.371-2.542,9.076,9.076,0,0,0,.819-4.034v-.021a8.743,8.743,0,0,0-.822-3.959,5.727,5.727,0,0,0-2.378-2.5,7.631,7.631,0,0,0-3.756-.864H76.307Zm2.638-2.226V-12.57H81.5a4.838,4.838,0,0,1,2.486.606,3.944,3.944,0,0,1,1.583,1.756,6.4,6.4,0,0,1,.549,2.777v.021A6.641,6.641,0,0,1,85.578-4.6,3.876,3.876,0,0,1,84-2.83a4.883,4.883,0,0,1-2.5.6Z" transform="translate(47.449 27.386)" fill="#36c346"/>
    <g id="Group_21130" data-name="Group 21130" transform="translate(4 2.065)">
      <circle id="Ellipse_112" data-name="Ellipse 112" cx="13.301" cy="13.301" r="13.301" transform="translate(4.434 4.087)" fill="#fff"/>
      <path id="Path_55814" data-name="Path 55814" d="M65.734,48A17.734,17.734,0,1,0,83.468,65.734,17.732,17.732,0,0,0,65.734,48ZM63,72.018a1.176,1.176,0,0,1-.75.375,1.229,1.229,0,0,1-.759-.384l-4.775-4.775,1.518-1.518,4.024,4.024L72.9,59.024l1.492,1.543Z" transform="translate(-48 -48)" fill="#32a23f"/>
    </g>
  </g>
</svg>
